<svg width="1400" height="760" viewBox="0 0 1400 760" fill="none" xmlns="http://www.w3.org/2000/svg">
  <rect width="1400" height="760" fill="#0C1220"/>
  <circle cx="196" cy="220" r="84" fill="#1E2B3F"/>
  <circle cx="440" cy="170" r="84" fill="#1E2B3F"/>
  <circle cx="700" cy="240" r="84" fill="#1E2B3F"/>
  <circle cx="930" cy="370" r="84" fill="#1E2B3F"/>
  <circle cx="1140" cy="520" r="84" fill="#1E2B3F"/>
  <circle cx="1300" cy="640" r="64" fill="#1E2B3F"/>
  <path d="M196 220C298 184 353 177 440 170C553 160 596 191 700 240C797 286 851 310 930 370C1017 435 1060 473 1140 520C1206 559 1246 588 1300 640" stroke="#D0A453" stroke-width="14" stroke-linecap="round"/>
  <circle cx="196" cy="220" r="14" fill="#F7D899"/>
  <circle cx="440" cy="170" r="14" fill="#F7D899"/>
  <circle cx="700" cy="240" r="14" fill="#F7D899"/>
  <circle cx="930" cy="370" r="14" fill="#F7D899"/>
  <circle cx="1140" cy="520" r="14" fill="#F7D899"/>
  <circle cx="1300" cy="640" r="14" fill="#F7D899"/>
  <text x="140" y="330" fill="#EADCC3" font-size="34" font-family="sans-serif">새절(6호선)</text>
  <text x="360" y="90" fill="#EADCC3" font-size="32" font-family="sans-serif">명지대·신촌권</text>
  <text x="620" y="340" fill="#EADCC3" font-size="32" font-family="sans-serif">여의도권</text>
  <text x="860" y="470" fill="#EADCC3" font-size="32" font-family="sans-serif">장승배기권</text>
  <text x="1030" y="700" fill="#EADCC3" font-size="34" font-family="sans-serif">서울대입구(2호선)</text>
</svg>
